<svg width="79" height="80" viewBox="0 0 79 80" fill="none" xmlns="http://www.w3.org/2000/svg">
<mask id="mask0_1_53" style="mask-type:alpha" maskUnits="userSpaceOnUse" x="0" y="0" width="79" height="80">
<rect x="37.0229" y="0.531494" width="60.4283" height="51.2623" transform="rotate(46 37.0229 0.531494)" fill="#D9D9D9"/>
</mask>
<g mask="url(#mask0_1_53)">
<path d="M13.5025 40.746C12.5406 39.7499 12.0179 38.6065 11.9347 37.316C11.8514 36.0255 12.2323 34.9722 13.0774 34.1562C13.9224 33.3401 14.9884 32.9962 16.2752 33.1244C17.562 33.2527 18.6864 33.8149 19.6484 34.8111C20.6103 35.8072 21.133 36.9505 21.2162 38.2411C21.2995 39.5316 20.9186 40.5849 20.0735 41.4009C19.2285 42.217 18.1625 42.5609 16.8757 42.4326C15.5889 42.3044 14.4645 41.7422 13.5025 40.746ZM34.4911 62.4803C37.4615 59.6117 39.6051 56.2583 40.9216 52.4201C42.2382 48.5819 42.7609 44.5623 42.4899 40.3613C42.2188 36.1602 41.1673 31.9837 39.3352 27.8317C37.5031 23.6797 34.8964 19.8529 31.5149 16.3513L36.1243 11.9C40.2345 16.1563 43.412 20.8175 45.6567 25.8837C47.9013 30.9498 49.1867 36.009 49.5126 41.0612C49.8386 46.1134 49.1937 50.9802 47.5779 55.6616C45.9621 60.343 43.3489 64.427 39.7382 67.9138L34.4911 62.4803ZM23.9968 51.6132C27.4026 48.3242 28.9399 44.1124 28.6086 38.9778C28.2773 33.8432 26.1732 29.2685 22.2961 25.2537L26.9055 20.8025C29.5874 23.5796 31.6526 26.6022 33.1012 29.8703C34.5498 33.1384 35.3795 36.4062 35.5903 39.6736C35.8011 42.9411 35.3851 46.0847 34.3422 49.1045C33.2992 52.1242 31.5998 54.7716 29.2439 57.0467L23.9968 51.6132Z" fill="white"/>
</g>
</svg>
